<svg width="113" height="72" viewBox="0 0 113 72" fill="none" xmlns="http://www.w3.org/2000/svg">
<path d="M48.8048 39.447C47.0887 37.2944 45.1235 35.6471 42.923 34.5327C44.8675 33.3491 46.5421 31.8954 47.926 30.165C50.2579 27.244 51.4412 23.5824 51.4412 19.2771C51.4412 15.6847 50.4932 12.383 48.618 9.46892C46.7496 6.55486 43.9679 4.21536 40.3489 2.5126C36.806 0.844458 32.5365 0 27.672 0H0V71.481H28.9452C33.6852 71.481 37.9201 70.6158 41.5253 68.913C45.1996 67.1826 48.0644 64.76 50.0296 61.7214C52.0017 58.6689 53.0051 55.201 53.0051 51.4148C53.0051 46.9779 51.5935 42.9564 48.8048 39.454V39.447ZM34.1073 26.4204C32.3981 27.8047 29.9001 28.5108 26.6963 28.5108H14.7252V12.6737H26.6963C29.8863 12.6737 32.3705 13.4005 34.0796 14.8402C35.7196 16.2176 36.5154 18.1211 36.5154 20.6407C36.5154 23.1602 35.7265 25.1122 34.1073 26.4204ZM14.7252 41.1913H27.5751C30.9381 41.1913 33.5261 42.0082 35.4843 43.6902C37.3596 45.3029 38.273 47.4417 38.273 50.2381C38.273 53.0345 37.4288 55.0072 35.685 56.4816C33.879 58.0113 31.2841 58.7866 27.9626 58.7866H14.7252V41.1913Z" fill="black"/>
<path d="M109.539 27.5001C107.311 23.4716 104.156 20.2946 100.156 18.0658C96.1634 15.837 91.548 14.7087 86.4551 14.7087C81.3622 14.7087 76.4007 15.8716 72.3112 18.1627C68.2147 20.4607 64.9901 23.7624 62.7343 27.9916C60.4784 32.2139 59.3367 37.1698 59.3367 42.721C59.3367 48.2723 60.513 53.2352 62.838 57.4505C65.1631 61.6728 68.4153 64.9953 72.5118 67.321C76.6014 69.6467 81.293 70.8234 86.462 70.8234C92.8074 70.8234 98.1978 69.2107 102.488 66.0336C106.778 62.8565 109.781 58.7173 111.421 53.7406L111.539 53.3875H98.9867L98.9106 53.5398C96.4956 58.4335 92.3092 60.9114 86.4551 60.9114C82.3794 60.9114 78.8918 59.617 76.0893 57.0767C73.356 54.5918 71.7853 51.2695 71.4185 47.1926H112.466L112.501 46.9641C112.764 45.3237 112.895 43.4687 112.895 41.4544C112.895 36.2216 111.767 31.5285 109.539 27.5001ZM76.2831 28.2199C78.9541 25.8319 82.2133 24.6276 85.9638 24.6276C90.1087 24.6276 93.6308 25.8528 96.4333 28.2754C99.1597 30.6288 100.606 33.7921 100.73 37.6683H71.5361C72.0897 33.7298 73.6882 30.5526 76.29 28.2269L76.2831 28.2199Z" fill="black"/>
<path d="M99.7825 1.6474H72.4426V8.12616H99.7825V1.6474Z" fill="black"/>
</svg>
