<svg width="500" height="461" viewBox="0 0 500 461" fill="none" xmlns="http://www.w3.org/2000/svg">
<g clip-path="url(#clip0_1_3)">
<rect x="234.5" y="245.5" width="235" height="31" transform="rotate(-90 234.5 245.5)" fill="#D9D9D9" stroke="black"/>
<rect x="125.5" y="166.5" width="72" height="31" transform="rotate(180 125.5 166.5)" fill="#D9D9D9" stroke="black"/>
<rect x="43.5" y="198.5" width="96" height="31" fill="#D9D9D9" stroke="black"/>
<path d="M71.6736 312.912L301.708 194.271L315.918 221.823L85.8833 340.464L71.6736 312.912Z" fill="#D9D9D9" stroke="black"/>
<mask id="path-5-inside-1_1_3" fill="white">
<path d="M328.082 147.155C334.784 150.078 342.234 150.829 349.385 149.301C356.536 147.774 363.028 144.045 367.952 138.638C372.875 133.232 375.981 126.419 376.834 119.157C377.687 111.895 376.245 104.548 372.708 98.1474C369.172 91.7471 363.72 86.6151 357.118 83.4719C350.516 80.3287 343.095 79.3322 335.898 80.6224C328.7 81.9125 322.088 85.4245 316.989 90.6652C311.889 95.9059 308.559 102.612 307.466 109.842L320.066 111.747C320.761 107.149 322.879 102.884 326.121 99.5518C329.364 96.2191 333.569 93.9858 338.146 93.1653C342.723 92.3449 347.442 92.9786 351.641 94.9774C355.839 96.9762 359.306 100.24 361.555 104.31C363.803 108.38 364.721 113.052 364.178 117.67C363.636 122.288 361.661 126.621 358.53 130.059C355.399 133.497 351.27 135.868 346.723 136.839C342.175 137.811 337.438 137.333 333.176 135.475L328.082 147.155Z"/>
</mask>
<path d="M328.082 147.155C334.784 150.078 342.234 150.829 349.385 149.301C356.536 147.774 363.028 144.045 367.952 138.638C372.875 133.232 375.981 126.419 376.834 119.157C377.687 111.895 376.245 104.548 372.708 98.1474C369.172 91.7471 363.72 86.6151 357.118 83.4719C350.516 80.3287 343.095 79.3322 335.898 80.6224C328.7 81.9125 322.088 85.4245 316.989 90.6652C311.889 95.9059 308.559 102.612 307.466 109.842L320.066 111.747C320.761 107.149 322.879 102.884 326.121 99.5518C329.364 96.2191 333.569 93.9858 338.146 93.1653C342.723 92.3449 347.442 92.9786 351.641 94.9774C355.839 96.9762 359.306 100.24 361.555 104.31C363.803 108.38 364.721 113.052 364.178 117.67C363.636 122.288 361.661 126.621 358.53 130.059C355.399 133.497 351.27 135.868 346.723 136.839C342.175 137.811 337.438 137.333 333.176 135.475L328.082 147.155Z" fill="#F6F3F3" stroke="black" stroke-width="2" mask="url(#path-5-inside-1_1_3)"/>
<path d="M369.5 116.5C369.5 134.188 355.606 148.5 338.5 148.5C321.394 148.5 307.5 134.188 307.5 116.5C307.5 98.812 321.394 84.5 338.5 84.5C355.606 84.5 369.5 98.812 369.5 116.5Z" fill="#D9D9D9" stroke="black"/>
<path d="M330.516 213.231L295.962 144.24L354.497 194.513L330.516 213.231Z" fill="#D9D9D9" stroke="black"/>
<path d="M355.162 193.724L296.33 143.398L370.01 167.17L355.162 193.724Z" fill="#F6F3F3" stroke="black"/>
<mask id="path-9-inside-2_1_3" fill="white">
<path d="M81.4593 370.97C104.567 398.036 133.974 419.696 167.089 434.039L170.715 425.497C139.115 411.809 111.053 391.141 89.0029 365.314L81.4593 370.97Z"/>
</mask>
<path d="M81.4593 370.97C104.567 398.036 133.974 419.696 167.089 434.039L170.715 425.497C139.115 411.809 111.053 391.141 89.0029 365.314L81.4593 370.97Z" fill="#D9D9D9" stroke="black" stroke-width="2" mask="url(#path-9-inside-2_1_3)"/>
<mask id="path-10-outside-3_1_3" maskUnits="userSpaceOnUse" x="28" y="7.99998" width="444" height="425" fill="black">
<rect fill="white" x="28" y="7.99998" width="444" height="425"/>
<path d="M339.46 430.99C381.897 412.101 417.267 380.265 440.501 340.042C463.736 299.819 473.643 253.274 468.802 207.075C463.962 160.877 444.623 117.396 413.556 82.8623C382.489 48.3287 341.288 24.5147 295.857 14.8323C250.426 5.14994 203.096 10.096 160.648 28.9619C118.201 47.8278 82.8139 79.6453 59.5577 119.856C36.3016 160.066 26.3698 206.606 31.1854 252.807C36.0009 299.008 55.3166 342.499 86.3651 377.05L108.98 356.727C82.2227 326.951 65.5765 289.471 61.4265 249.655C57.2765 209.839 65.8357 169.731 85.8777 135.078C105.92 100.425 136.416 73.0048 172.997 56.7463C209.578 40.4877 250.367 36.2252 289.519 44.5695C328.672 52.9137 364.178 73.4365 390.952 103.197C417.725 132.958 434.391 170.43 438.563 210.243C442.734 250.057 434.197 290.169 414.173 324.833C394.15 359.497 363.668 386.934 327.096 403.212L339.46 430.99Z"/>
</mask>
<path d="M339.46 430.99C381.897 412.101 417.267 380.265 440.501 340.042C463.736 299.819 473.643 253.274 468.802 207.075C463.962 160.877 444.623 117.396 413.556 82.8623C382.489 48.3287 341.288 24.5147 295.857 14.8323C250.426 5.14994 203.096 10.096 160.648 28.9619C118.201 47.8278 82.8139 79.6453 59.5577 119.856C36.3016 160.066 26.3698 206.606 31.1854 252.807C36.0009 299.008 55.3166 342.499 86.3651 377.05L108.98 356.727C82.2227 326.951 65.5765 289.471 61.4265 249.655C57.2765 209.839 65.8357 169.731 85.8777 135.078C105.92 100.425 136.416 73.0048 172.997 56.7463C209.578 40.4877 250.367 36.2252 289.519 44.5695C328.672 52.9137 364.178 73.4365 390.952 103.197C417.725 132.958 434.391 170.43 438.563 210.243C442.734 250.057 434.197 290.169 414.173 324.833C394.15 359.497 363.668 386.934 327.096 403.212L339.46 430.99Z" fill="#D9D9D9"/>
<path d="M339.46 430.99C381.897 412.101 417.267 380.265 440.501 340.042C463.736 299.819 473.643 253.274 468.802 207.075C463.962 160.877 444.623 117.396 413.556 82.8623C382.489 48.3287 341.288 24.5147 295.857 14.8323C250.426 5.14994 203.096 10.096 160.648 28.9619C118.201 47.8278 82.8139 79.6453 59.5577 119.856C36.3016 160.066 26.3698 206.606 31.1854 252.807C36.0009 299.008 55.3166 342.499 86.3651 377.05L108.98 356.727C82.2227 326.951 65.5765 289.471 61.4265 249.655C57.2765 209.839 65.8357 169.731 85.8777 135.078C105.92 100.425 136.416 73.0048 172.997 56.7463C209.578 40.4877 250.367 36.2252 289.519 44.5695C328.672 52.9137 364.178 73.4365 390.952 103.197C417.725 132.958 434.391 170.43 438.563 210.243C442.734 250.057 434.197 290.169 414.173 324.833C394.15 359.497 363.668 386.934 327.096 403.212L339.46 430.99Z" stroke="black" stroke-width="2" mask="url(#path-10-outside-3_1_3)"/>
</g>
<defs>
<clipPath id="clip0_1_3">
<rect width="500" height="461" fill="white"/>
</clipPath>
</defs>
</svg>
